<mxfile host="Electron" agent="Mozilla/5.0 (Windows NT 10.0; Win64; x64) AppleWebKit/537.36 (KHTML, like Gecko) draw.io/27.0.2 Chrome/134.0.6998.205 Electron/35.3.0 Safari/537.36" version="27.0.2" pages="7">
  <diagram name="1.Вычисление значения M" id="82YUkolllEUf4Fyje2Gt">
    <mxGraphModel dx="273" dy="714" grid="1" gridSize="10" guides="1" tooltips="1" connect="1" arrows="1" fold="1" page="1" pageScale="1" pageWidth="827" pageHeight="1169" math="0" shadow="0">
      <root>
        <mxCell id="0" />
        <mxCell id="1" parent="0" />
        <mxCell id="lHK9Lf8-2YwmvWHCyLjr-4" value="" style="edgeStyle=orthogonalEdgeStyle;rounded=0;orthogonalLoop=1;jettySize=auto;html=1;" parent="1" source="lHK9Lf8-2YwmvWHCyLjr-2" target="lHK9Lf8-2YwmvWHCyLjr-3" edge="1">
          <mxGeometry relative="1" as="geometry" />
        </mxCell>
        <mxCell id="lHK9Lf8-2YwmvWHCyLjr-2" value="Начало" style="rounded=0;whiteSpace=wrap;html=1;" parent="1" vertex="1">
          <mxGeometry x="310" y="90" width="120" height="60" as="geometry" />
        </mxCell>
        <mxCell id="lHK9Lf8-2YwmvWHCyLjr-6" value="" style="edgeStyle=orthogonalEdgeStyle;rounded=0;orthogonalLoop=1;jettySize=auto;html=1;" parent="1" source="lHK9Lf8-2YwmvWHCyLjr-3" target="lHK9Lf8-2YwmvWHCyLjr-5" edge="1">
          <mxGeometry relative="1" as="geometry" />
        </mxCell>
        <mxCell id="lHK9Lf8-2YwmvWHCyLjr-3" value="Ввод А, В" style="whiteSpace=wrap;html=1;rounded=0;" parent="1" vertex="1">
          <mxGeometry x="310" y="230" width="120" height="60" as="geometry" />
        </mxCell>
        <mxCell id="lHK9Lf8-2YwmvWHCyLjr-8" value="" style="edgeStyle=orthogonalEdgeStyle;rounded=0;orthogonalLoop=1;jettySize=auto;html=1;" parent="1" source="lHK9Lf8-2YwmvWHCyLjr-5" target="lHK9Lf8-2YwmvWHCyLjr-7" edge="1">
          <mxGeometry relative="1" as="geometry" />
        </mxCell>
        <mxCell id="lHK9Lf8-2YwmvWHCyLjr-10" value="" style="edgeStyle=orthogonalEdgeStyle;rounded=0;orthogonalLoop=1;jettySize=auto;html=1;" parent="1" source="lHK9Lf8-2YwmvWHCyLjr-5" target="lHK9Lf8-2YwmvWHCyLjr-9" edge="1">
          <mxGeometry relative="1" as="geometry" />
        </mxCell>
        <mxCell id="lHK9Lf8-2YwmvWHCyLjr-5" value="А=В?" style="rhombus;whiteSpace=wrap;html=1;rounded=0;" parent="1" vertex="1">
          <mxGeometry x="330" y="360" width="80" height="80" as="geometry" />
        </mxCell>
        <mxCell id="lHK9Lf8-2YwmvWHCyLjr-12" value="" style="edgeStyle=orthogonalEdgeStyle;rounded=0;orthogonalLoop=1;jettySize=auto;html=1;" parent="1" source="lHK9Lf8-2YwmvWHCyLjr-7" target="lHK9Lf8-2YwmvWHCyLjr-11" edge="1">
          <mxGeometry relative="1" as="geometry" />
        </mxCell>
        <mxCell id="lHK9Lf8-2YwmvWHCyLjr-7" value="Да" style="text;html=1;align=center;verticalAlign=middle;whiteSpace=wrap;rounded=0;" parent="1" vertex="1">
          <mxGeometry x="160" y="500" width="60" height="30" as="geometry" />
        </mxCell>
        <mxCell id="lHK9Lf8-2YwmvWHCyLjr-14" value="" style="edgeStyle=orthogonalEdgeStyle;rounded=0;orthogonalLoop=1;jettySize=auto;html=1;" parent="1" source="lHK9Lf8-2YwmvWHCyLjr-9" target="lHK9Lf8-2YwmvWHCyLjr-13" edge="1">
          <mxGeometry relative="1" as="geometry" />
        </mxCell>
        <mxCell id="lHK9Lf8-2YwmvWHCyLjr-9" value="Нет" style="text;html=1;align=center;verticalAlign=middle;whiteSpace=wrap;rounded=0;" parent="1" vertex="1">
          <mxGeometry x="500" y="450" width="60" height="30" as="geometry" />
        </mxCell>
        <mxCell id="lHK9Lf8-2YwmvWHCyLjr-29" value="" style="edgeStyle=orthogonalEdgeStyle;rounded=0;orthogonalLoop=1;jettySize=auto;html=1;" parent="1" source="lHK9Lf8-2YwmvWHCyLjr-11" target="lHK9Lf8-2YwmvWHCyLjr-26" edge="1">
          <mxGeometry relative="1" as="geometry" />
        </mxCell>
        <mxCell id="lHK9Lf8-2YwmvWHCyLjr-11" value="М = 1" style="rounded=0;whiteSpace=wrap;html=1;" parent="1" vertex="1">
          <mxGeometry x="130" y="590" width="120" height="60" as="geometry" />
        </mxCell>
        <mxCell id="lHK9Lf8-2YwmvWHCyLjr-16" value="" style="edgeStyle=orthogonalEdgeStyle;rounded=0;orthogonalLoop=1;jettySize=auto;html=1;" parent="1" source="lHK9Lf8-2YwmvWHCyLjr-13" target="lHK9Lf8-2YwmvWHCyLjr-15" edge="1">
          <mxGeometry relative="1" as="geometry" />
        </mxCell>
        <mxCell id="lHK9Lf8-2YwmvWHCyLjr-19" value="" style="edgeStyle=orthogonalEdgeStyle;rounded=0;orthogonalLoop=1;jettySize=auto;html=1;" parent="1" source="lHK9Lf8-2YwmvWHCyLjr-13" target="lHK9Lf8-2YwmvWHCyLjr-17" edge="1">
          <mxGeometry relative="1" as="geometry" />
        </mxCell>
        <mxCell id="lHK9Lf8-2YwmvWHCyLjr-13" value="А &amp;gt; B?" style="rhombus;whiteSpace=wrap;html=1;" parent="1" vertex="1">
          <mxGeometry x="490" y="530" width="80" height="80" as="geometry" />
        </mxCell>
        <mxCell id="lHK9Lf8-2YwmvWHCyLjr-25" value="" style="edgeStyle=orthogonalEdgeStyle;rounded=0;orthogonalLoop=1;jettySize=auto;html=1;" parent="1" source="lHK9Lf8-2YwmvWHCyLjr-15" target="lHK9Lf8-2YwmvWHCyLjr-21" edge="1">
          <mxGeometry relative="1" as="geometry" />
        </mxCell>
        <mxCell id="lHK9Lf8-2YwmvWHCyLjr-15" value="Да" style="text;html=1;align=center;verticalAlign=middle;whiteSpace=wrap;rounded=0;" parent="1" vertex="1">
          <mxGeometry x="460" y="670" width="60" height="30" as="geometry" />
        </mxCell>
        <mxCell id="lHK9Lf8-2YwmvWHCyLjr-23" value="" style="edgeStyle=orthogonalEdgeStyle;rounded=0;orthogonalLoop=1;jettySize=auto;html=1;" parent="1" source="lHK9Lf8-2YwmvWHCyLjr-17" target="lHK9Lf8-2YwmvWHCyLjr-22" edge="1">
          <mxGeometry relative="1" as="geometry" />
        </mxCell>
        <mxCell id="lHK9Lf8-2YwmvWHCyLjr-17" value="Нет" style="text;html=1;align=center;verticalAlign=middle;whiteSpace=wrap;rounded=0;" parent="1" vertex="1">
          <mxGeometry x="540" y="670" width="60" height="30" as="geometry" />
        </mxCell>
        <mxCell id="lHK9Lf8-2YwmvWHCyLjr-21" value="М = 2" style="rounded=0;whiteSpace=wrap;html=1;" parent="1" vertex="1">
          <mxGeometry x="400" y="760" width="120" height="60" as="geometry" />
        </mxCell>
        <mxCell id="lHK9Lf8-2YwmvWHCyLjr-22" value="М = 3" style="rounded=0;whiteSpace=wrap;html=1;" parent="1" vertex="1">
          <mxGeometry x="540" y="760" width="120" height="60" as="geometry" />
        </mxCell>
        <mxCell id="lHK9Lf8-2YwmvWHCyLjr-26" value="Конец" style="rounded=0;whiteSpace=wrap;html=1;" parent="1" vertex="1">
          <mxGeometry x="260" y="940" width="120" height="60" as="geometry" />
        </mxCell>
        <mxCell id="lHK9Lf8-2YwmvWHCyLjr-33" value="" style="endArrow=classic;html=1;rounded=0;exitX=0.5;exitY=1;exitDx=0;exitDy=0;entryX=1;entryY=0.5;entryDx=0;entryDy=0;" parent="1" source="lHK9Lf8-2YwmvWHCyLjr-21" target="lHK9Lf8-2YwmvWHCyLjr-26" edge="1">
          <mxGeometry width="50" height="50" relative="1" as="geometry">
            <mxPoint x="450" y="850" as="sourcePoint" />
            <mxPoint x="510" y="1040" as="targetPoint" />
            <Array as="points">
              <mxPoint x="460" y="970" />
            </Array>
          </mxGeometry>
        </mxCell>
        <mxCell id="lHK9Lf8-2YwmvWHCyLjr-34" value="" style="endArrow=classic;html=1;rounded=0;exitX=0.5;exitY=1;exitDx=0;exitDy=0;entryX=1;entryY=1;entryDx=0;entryDy=0;" parent="1" source="lHK9Lf8-2YwmvWHCyLjr-22" target="lHK9Lf8-2YwmvWHCyLjr-26" edge="1">
          <mxGeometry width="50" height="50" relative="1" as="geometry">
            <mxPoint x="390" y="890" as="sourcePoint" />
            <mxPoint x="440" y="840" as="targetPoint" />
            <Array as="points">
              <mxPoint x="600" y="1000" />
            </Array>
          </mxGeometry>
        </mxCell>
      </root>
    </mxGraphModel>
  </diagram>
  <diagram id="NQ987MexeZzouHnYo1Wx" name="2. Вычисление функции">
    <mxGraphModel dx="273" dy="714" grid="1" gridSize="10" guides="1" tooltips="1" connect="1" arrows="1" fold="1" page="1" pageScale="1" pageWidth="827" pageHeight="1169" math="0" shadow="0">
      <root>
        <mxCell id="0" />
        <mxCell id="1" parent="0" />
        <mxCell id="NNThS9pBJ1WeRWPYslA3-3" value="" style="edgeStyle=orthogonalEdgeStyle;rounded=0;orthogonalLoop=1;jettySize=auto;html=1;" parent="1" source="NNThS9pBJ1WeRWPYslA3-1" target="NNThS9pBJ1WeRWPYslA3-2" edge="1">
          <mxGeometry relative="1" as="geometry" />
        </mxCell>
        <mxCell id="NNThS9pBJ1WeRWPYslA3-1" value="Начало" style="rounded=0;whiteSpace=wrap;html=1;" parent="1" vertex="1">
          <mxGeometry x="220" y="60" width="120" height="60" as="geometry" />
        </mxCell>
        <mxCell id="NNThS9pBJ1WeRWPYslA3-5" value="" style="edgeStyle=orthogonalEdgeStyle;rounded=0;orthogonalLoop=1;jettySize=auto;html=1;" parent="1" source="NNThS9pBJ1WeRWPYslA3-2" target="NNThS9pBJ1WeRWPYslA3-4" edge="1">
          <mxGeometry relative="1" as="geometry" />
        </mxCell>
        <mxCell id="NNThS9pBJ1WeRWPYslA3-2" value="Ввод&amp;nbsp; х" style="rounded=0;whiteSpace=wrap;html=1;" parent="1" vertex="1">
          <mxGeometry x="220" y="240" width="120" height="60" as="geometry" />
        </mxCell>
        <mxCell id="NNThS9pBJ1WeRWPYslA3-7" value="" style="edgeStyle=orthogonalEdgeStyle;rounded=0;orthogonalLoop=1;jettySize=auto;html=1;" parent="1" source="NNThS9pBJ1WeRWPYslA3-4" target="NNThS9pBJ1WeRWPYslA3-6" edge="1">
          <mxGeometry relative="1" as="geometry" />
        </mxCell>
        <mxCell id="NNThS9pBJ1WeRWPYslA3-9" value="" style="edgeStyle=orthogonalEdgeStyle;rounded=0;orthogonalLoop=1;jettySize=auto;html=1;" parent="1" source="NNThS9pBJ1WeRWPYslA3-4" target="NNThS9pBJ1WeRWPYslA3-8" edge="1">
          <mxGeometry relative="1" as="geometry" />
        </mxCell>
        <mxCell id="NNThS9pBJ1WeRWPYslA3-4" value="х &amp;gt; 0?" style="rhombus;whiteSpace=wrap;html=1;" parent="1" vertex="1">
          <mxGeometry x="240" y="400" width="80" height="80" as="geometry" />
        </mxCell>
        <mxCell id="NNThS9pBJ1WeRWPYslA3-11" value="" style="edgeStyle=orthogonalEdgeStyle;rounded=0;orthogonalLoop=1;jettySize=auto;html=1;" parent="1" source="NNThS9pBJ1WeRWPYslA3-6" target="NNThS9pBJ1WeRWPYslA3-10" edge="1">
          <mxGeometry relative="1" as="geometry" />
        </mxCell>
        <mxCell id="NNThS9pBJ1WeRWPYslA3-6" value="Да" style="text;html=1;align=center;verticalAlign=middle;whiteSpace=wrap;rounded=0;" parent="1" vertex="1">
          <mxGeometry x="130" y="480" width="60" height="30" as="geometry" />
        </mxCell>
        <mxCell id="NNThS9pBJ1WeRWPYslA3-13" value="" style="edgeStyle=orthogonalEdgeStyle;rounded=0;orthogonalLoop=1;jettySize=auto;html=1;" parent="1" source="NNThS9pBJ1WeRWPYslA3-8" target="NNThS9pBJ1WeRWPYslA3-12" edge="1">
          <mxGeometry relative="1" as="geometry" />
        </mxCell>
        <mxCell id="NNThS9pBJ1WeRWPYslA3-8" value="Нет" style="text;html=1;align=center;verticalAlign=middle;whiteSpace=wrap;rounded=0;" parent="1" vertex="1">
          <mxGeometry x="370" y="480" width="60" height="30" as="geometry" />
        </mxCell>
        <mxCell id="NNThS9pBJ1WeRWPYslA3-16" value="" style="edgeStyle=orthogonalEdgeStyle;rounded=0;orthogonalLoop=1;jettySize=auto;html=1;" parent="1" source="NNThS9pBJ1WeRWPYslA3-10" target="NNThS9pBJ1WeRWPYslA3-14" edge="1">
          <mxGeometry relative="1" as="geometry" />
        </mxCell>
        <mxCell id="NNThS9pBJ1WeRWPYslA3-10" value="y = x * x" style="rounded=0;whiteSpace=wrap;html=1;" parent="1" vertex="1">
          <mxGeometry x="100" y="610" width="120" height="60" as="geometry" />
        </mxCell>
        <mxCell id="NNThS9pBJ1WeRWPYslA3-15" value="" style="edgeStyle=orthogonalEdgeStyle;rounded=0;orthogonalLoop=1;jettySize=auto;html=1;" parent="1" source="NNThS9pBJ1WeRWPYslA3-12" target="NNThS9pBJ1WeRWPYslA3-14" edge="1">
          <mxGeometry relative="1" as="geometry" />
        </mxCell>
        <mxCell id="NNThS9pBJ1WeRWPYslA3-12" value="y =- x" style="rounded=0;whiteSpace=wrap;html=1;" parent="1" vertex="1">
          <mxGeometry x="340" y="610" width="120" height="60" as="geometry" />
        </mxCell>
        <mxCell id="NNThS9pBJ1WeRWPYslA3-18" value="" style="edgeStyle=orthogonalEdgeStyle;rounded=0;orthogonalLoop=1;jettySize=auto;html=1;" parent="1" source="NNThS9pBJ1WeRWPYslA3-14" target="NNThS9pBJ1WeRWPYslA3-17" edge="1">
          <mxGeometry relative="1" as="geometry" />
        </mxCell>
        <mxCell id="NNThS9pBJ1WeRWPYslA3-14" value="Вывод y" style="rounded=0;whiteSpace=wrap;html=1;" parent="1" vertex="1">
          <mxGeometry x="220" y="760" width="120" height="60" as="geometry" />
        </mxCell>
        <mxCell id="NNThS9pBJ1WeRWPYslA3-17" value="Конец" style="rounded=0;whiteSpace=wrap;html=1;" parent="1" vertex="1">
          <mxGeometry x="220" y="870" width="120" height="60" as="geometry" />
        </mxCell>
      </root>
    </mxGraphModel>
  </diagram>
  <diagram id="cNYXbm0dcdjKJL4FpwbR" name="3.Решение квадратного уравнения">
    <mxGraphModel dx="780" dy="2040" grid="1" gridSize="10" guides="1" tooltips="1" connect="1" arrows="1" fold="1" page="1" pageScale="1" pageWidth="827" pageHeight="1169" math="0" shadow="0">
      <root>
        <mxCell id="0" />
        <mxCell id="1" parent="0" />
        <mxCell id="lpZXmWmaATDTkYnb3uuY-4" value="" style="edgeStyle=orthogonalEdgeStyle;rounded=0;orthogonalLoop=1;jettySize=auto;html=1;" edge="1" parent="1" source="lpZXmWmaATDTkYnb3uuY-2" target="lpZXmWmaATDTkYnb3uuY-3">
          <mxGeometry relative="1" as="geometry" />
        </mxCell>
        <mxCell id="lpZXmWmaATDTkYnb3uuY-2" value="Начало" style="rounded=0;whiteSpace=wrap;html=1;" vertex="1" parent="1">
          <mxGeometry x="310" y="30" width="120" height="60" as="geometry" />
        </mxCell>
        <mxCell id="lpZXmWmaATDTkYnb3uuY-6" value="" style="edgeStyle=orthogonalEdgeStyle;rounded=0;orthogonalLoop=1;jettySize=auto;html=1;" edge="1" parent="1" source="lpZXmWmaATDTkYnb3uuY-3" target="lpZXmWmaATDTkYnb3uuY-5">
          <mxGeometry relative="1" as="geometry" />
        </mxCell>
        <mxCell id="lpZXmWmaATDTkYnb3uuY-3" value="Ввод a, b, c" style="rounded=0;whiteSpace=wrap;html=1;" vertex="1" parent="1">
          <mxGeometry x="310" y="130" width="120" height="60" as="geometry" />
        </mxCell>
        <mxCell id="lpZXmWmaATDTkYnb3uuY-8" value="" style="edgeStyle=orthogonalEdgeStyle;rounded=0;orthogonalLoop=1;jettySize=auto;html=1;" edge="1" parent="1" source="lpZXmWmaATDTkYnb3uuY-5" target="lpZXmWmaATDTkYnb3uuY-7">
          <mxGeometry relative="1" as="geometry" />
        </mxCell>
        <mxCell id="lpZXmWmaATDTkYnb3uuY-5" value="D = b*b - 4* a * c" style="rounded=0;whiteSpace=wrap;html=1;" vertex="1" parent="1">
          <mxGeometry x="310" y="230" width="120" height="60" as="geometry" />
        </mxCell>
        <mxCell id="lpZXmWmaATDTkYnb3uuY-10" value="" style="edgeStyle=orthogonalEdgeStyle;rounded=0;orthogonalLoop=1;jettySize=auto;html=1;" edge="1" parent="1" source="lpZXmWmaATDTkYnb3uuY-7" target="lpZXmWmaATDTkYnb3uuY-9">
          <mxGeometry relative="1" as="geometry" />
        </mxCell>
        <mxCell id="lpZXmWmaATDTkYnb3uuY-12" value="" style="edgeStyle=orthogonalEdgeStyle;rounded=0;orthogonalLoop=1;jettySize=auto;html=1;" edge="1" parent="1" source="lpZXmWmaATDTkYnb3uuY-7" target="lpZXmWmaATDTkYnb3uuY-11">
          <mxGeometry relative="1" as="geometry" />
        </mxCell>
        <mxCell id="lpZXmWmaATDTkYnb3uuY-7" value="D &amp;gt; 0?" style="rhombus;whiteSpace=wrap;html=1;rounded=0;" vertex="1" parent="1">
          <mxGeometry x="330" y="360" width="80" height="80" as="geometry" />
        </mxCell>
        <mxCell id="lpZXmWmaATDTkYnb3uuY-14" value="" style="edgeStyle=orthogonalEdgeStyle;rounded=0;orthogonalLoop=1;jettySize=auto;html=1;" edge="1" parent="1" source="lpZXmWmaATDTkYnb3uuY-9" target="lpZXmWmaATDTkYnb3uuY-13">
          <mxGeometry relative="1" as="geometry" />
        </mxCell>
        <mxCell id="lpZXmWmaATDTkYnb3uuY-9" value="Нет" style="text;html=1;align=center;verticalAlign=middle;whiteSpace=wrap;rounded=0;" vertex="1" parent="1">
          <mxGeometry x="413" y="440" width="60" height="30" as="geometry" />
        </mxCell>
        <mxCell id="lpZXmWmaATDTkYnb3uuY-25" value="" style="edgeStyle=orthogonalEdgeStyle;rounded=0;orthogonalLoop=1;jettySize=auto;html=1;" edge="1" parent="1" source="lpZXmWmaATDTkYnb3uuY-11" target="lpZXmWmaATDTkYnb3uuY-19">
          <mxGeometry relative="1" as="geometry">
            <mxPoint x="180" y="445" as="targetPoint" />
          </mxGeometry>
        </mxCell>
        <mxCell id="lpZXmWmaATDTkYnb3uuY-11" value="Да" style="text;html=1;align=center;verticalAlign=middle;whiteSpace=wrap;rounded=0;" vertex="1" parent="1">
          <mxGeometry x="230" y="430" width="60" height="30" as="geometry" />
        </mxCell>
        <mxCell id="lpZXmWmaATDTkYnb3uuY-17" value="" style="edgeStyle=orthogonalEdgeStyle;rounded=0;orthogonalLoop=1;jettySize=auto;html=1;" edge="1" parent="1" source="lpZXmWmaATDTkYnb3uuY-13" target="lpZXmWmaATDTkYnb3uuY-15">
          <mxGeometry relative="1" as="geometry" />
        </mxCell>
        <mxCell id="lpZXmWmaATDTkYnb3uuY-18" value="" style="edgeStyle=orthogonalEdgeStyle;rounded=0;orthogonalLoop=1;jettySize=auto;html=1;" edge="1" parent="1" source="lpZXmWmaATDTkYnb3uuY-13" target="lpZXmWmaATDTkYnb3uuY-16">
          <mxGeometry relative="1" as="geometry" />
        </mxCell>
        <mxCell id="lpZXmWmaATDTkYnb3uuY-13" value="D = 0?" style="rhombus;whiteSpace=wrap;html=1;" vertex="1" parent="1">
          <mxGeometry x="403" y="525" width="80" height="80" as="geometry" />
        </mxCell>
        <mxCell id="lpZXmWmaATDTkYnb3uuY-22" value="" style="edgeStyle=orthogonalEdgeStyle;rounded=0;orthogonalLoop=1;jettySize=auto;html=1;" edge="1" parent="1" source="lpZXmWmaATDTkYnb3uuY-15" target="lpZXmWmaATDTkYnb3uuY-21">
          <mxGeometry relative="1" as="geometry" />
        </mxCell>
        <mxCell id="lpZXmWmaATDTkYnb3uuY-15" value="Нет" style="text;html=1;align=center;verticalAlign=middle;whiteSpace=wrap;rounded=0;" vertex="1" parent="1">
          <mxGeometry x="490" y="630" width="60" height="30" as="geometry" />
        </mxCell>
        <mxCell id="lpZXmWmaATDTkYnb3uuY-23" value="" style="edgeStyle=orthogonalEdgeStyle;rounded=0;orthogonalLoop=1;jettySize=auto;html=1;" edge="1" parent="1" source="lpZXmWmaATDTkYnb3uuY-16" target="lpZXmWmaATDTkYnb3uuY-20">
          <mxGeometry relative="1" as="geometry" />
        </mxCell>
        <mxCell id="lpZXmWmaATDTkYnb3uuY-16" value="Да" style="text;html=1;align=center;verticalAlign=middle;whiteSpace=wrap;rounded=0;" vertex="1" parent="1">
          <mxGeometry x="340" y="630" width="60" height="30" as="geometry" />
        </mxCell>
        <mxCell id="lpZXmWmaATDTkYnb3uuY-27" value="" style="edgeStyle=orthogonalEdgeStyle;rounded=0;orthogonalLoop=1;jettySize=auto;html=1;" edge="1" parent="1" source="lpZXmWmaATDTkYnb3uuY-19" target="lpZXmWmaATDTkYnb3uuY-26">
          <mxGeometry relative="1" as="geometry" />
        </mxCell>
        <mxCell id="lpZXmWmaATDTkYnb3uuY-19" value="x1 = (-b + √D)/(2a)&lt;div&gt;x2 = (-b - √D)/(2a)&lt;/div&gt;" style="rounded=0;whiteSpace=wrap;html=1;" vertex="1" parent="1">
          <mxGeometry x="140" y="580" width="120" height="60" as="geometry" />
        </mxCell>
        <mxCell id="lpZXmWmaATDTkYnb3uuY-28" value="" style="edgeStyle=orthogonalEdgeStyle;rounded=0;orthogonalLoop=1;jettySize=auto;html=1;" edge="1" parent="1" source="lpZXmWmaATDTkYnb3uuY-20" target="lpZXmWmaATDTkYnb3uuY-26">
          <mxGeometry relative="1" as="geometry" />
        </mxCell>
        <mxCell id="lpZXmWmaATDTkYnb3uuY-20" value="x = -b/(2a)" style="rounded=0;whiteSpace=wrap;html=1;" vertex="1" parent="1">
          <mxGeometry x="310" y="700" width="120" height="60" as="geometry" />
        </mxCell>
        <mxCell id="lpZXmWmaATDTkYnb3uuY-29" value="" style="edgeStyle=orthogonalEdgeStyle;rounded=0;orthogonalLoop=1;jettySize=auto;html=1;" edge="1" parent="1" source="lpZXmWmaATDTkYnb3uuY-21" target="lpZXmWmaATDTkYnb3uuY-26">
          <mxGeometry relative="1" as="geometry" />
        </mxCell>
        <mxCell id="lpZXmWmaATDTkYnb3uuY-21" value="Корней нет" style="rounded=0;whiteSpace=wrap;html=1;" vertex="1" parent="1">
          <mxGeometry x="460" y="700" width="120" height="60" as="geometry" />
        </mxCell>
        <mxCell id="lpZXmWmaATDTkYnb3uuY-26" value="Конец" style="rounded=0;whiteSpace=wrap;html=1;" vertex="1" parent="1">
          <mxGeometry x="383" y="870" width="120" height="60" as="geometry" />
        </mxCell>
      </root>
    </mxGraphModel>
  </diagram>
  <diagram id="XKGkkpkQkAHAoJag6xho" name="4.Вычисление с x и y">
    <mxGraphModel dx="420" dy="1098" grid="1" gridSize="10" guides="1" tooltips="1" connect="1" arrows="1" fold="1" page="1" pageScale="1" pageWidth="827" pageHeight="1169" math="0" shadow="0">
      <root>
        <mxCell id="0" />
        <mxCell id="1" parent="0" />
        <mxCell id="aLoy-yfGPoiCsrLDZPaP-3" value="" style="edgeStyle=orthogonalEdgeStyle;rounded=0;orthogonalLoop=1;jettySize=auto;html=1;" edge="1" parent="1" source="aLoy-yfGPoiCsrLDZPaP-1" target="aLoy-yfGPoiCsrLDZPaP-2">
          <mxGeometry relative="1" as="geometry" />
        </mxCell>
        <mxCell id="aLoy-yfGPoiCsrLDZPaP-1" value="Начало" style="rounded=0;whiteSpace=wrap;html=1;" vertex="1" parent="1">
          <mxGeometry x="210" y="20" width="120" height="60" as="geometry" />
        </mxCell>
        <mxCell id="aLoy-yfGPoiCsrLDZPaP-5" value="" style="edgeStyle=orthogonalEdgeStyle;rounded=0;orthogonalLoop=1;jettySize=auto;html=1;" edge="1" parent="1" source="aLoy-yfGPoiCsrLDZPaP-2" target="aLoy-yfGPoiCsrLDZPaP-4">
          <mxGeometry relative="1" as="geometry" />
        </mxCell>
        <mxCell id="aLoy-yfGPoiCsrLDZPaP-2" value="Ввод x, y" style="rounded=0;whiteSpace=wrap;html=1;" vertex="1" parent="1">
          <mxGeometry x="210" y="160" width="120" height="60" as="geometry" />
        </mxCell>
        <mxCell id="aLoy-yfGPoiCsrLDZPaP-7" value="" style="edgeStyle=orthogonalEdgeStyle;rounded=0;orthogonalLoop=1;jettySize=auto;html=1;" edge="1" parent="1" source="aLoy-yfGPoiCsrLDZPaP-4" target="aLoy-yfGPoiCsrLDZPaP-6">
          <mxGeometry relative="1" as="geometry" />
        </mxCell>
        <mxCell id="aLoy-yfGPoiCsrLDZPaP-9" value="" style="edgeStyle=orthogonalEdgeStyle;rounded=0;orthogonalLoop=1;jettySize=auto;html=1;" edge="1" parent="1" source="aLoy-yfGPoiCsrLDZPaP-4" target="aLoy-yfGPoiCsrLDZPaP-8">
          <mxGeometry relative="1" as="geometry" />
        </mxCell>
        <mxCell id="aLoy-yfGPoiCsrLDZPaP-4" value="x &amp;gt; y?" style="rhombus;whiteSpace=wrap;html=1;rounded=0;" vertex="1" parent="1">
          <mxGeometry x="230" y="290" width="80" height="80" as="geometry" />
        </mxCell>
        <mxCell id="aLoy-yfGPoiCsrLDZPaP-13" value="" style="edgeStyle=orthogonalEdgeStyle;rounded=0;orthogonalLoop=1;jettySize=auto;html=1;" edge="1" parent="1" source="aLoy-yfGPoiCsrLDZPaP-6" target="aLoy-yfGPoiCsrLDZPaP-12">
          <mxGeometry relative="1" as="geometry" />
        </mxCell>
        <mxCell id="aLoy-yfGPoiCsrLDZPaP-6" value="Нет" style="text;html=1;align=center;verticalAlign=middle;whiteSpace=wrap;rounded=0;" vertex="1" parent="1">
          <mxGeometry x="383" y="315" width="60" height="30" as="geometry" />
        </mxCell>
        <mxCell id="aLoy-yfGPoiCsrLDZPaP-11" value="" style="edgeStyle=orthogonalEdgeStyle;rounded=0;orthogonalLoop=1;jettySize=auto;html=1;" edge="1" parent="1" source="aLoy-yfGPoiCsrLDZPaP-8" target="aLoy-yfGPoiCsrLDZPaP-10">
          <mxGeometry relative="1" as="geometry" />
        </mxCell>
        <mxCell id="aLoy-yfGPoiCsrLDZPaP-8" value="Да" style="text;html=1;align=center;verticalAlign=middle;whiteSpace=wrap;rounded=0;" vertex="1" parent="1">
          <mxGeometry x="110" y="315" width="60" height="30" as="geometry" />
        </mxCell>
        <mxCell id="aLoy-yfGPoiCsrLDZPaP-15" value="" style="edgeStyle=orthogonalEdgeStyle;rounded=0;orthogonalLoop=1;jettySize=auto;html=1;" edge="1" parent="1" source="aLoy-yfGPoiCsrLDZPaP-10" target="aLoy-yfGPoiCsrLDZPaP-14">
          <mxGeometry relative="1" as="geometry" />
        </mxCell>
        <mxCell id="aLoy-yfGPoiCsrLDZPaP-10" value="z = x + y" style="rounded=0;whiteSpace=wrap;html=1;" vertex="1" parent="1">
          <mxGeometry x="80" y="420" width="120" height="60" as="geometry" />
        </mxCell>
        <mxCell id="aLoy-yfGPoiCsrLDZPaP-16" value="" style="edgeStyle=orthogonalEdgeStyle;rounded=0;orthogonalLoop=1;jettySize=auto;html=1;" edge="1" parent="1" source="aLoy-yfGPoiCsrLDZPaP-12" target="aLoy-yfGPoiCsrLDZPaP-14">
          <mxGeometry relative="1" as="geometry" />
        </mxCell>
        <mxCell id="aLoy-yfGPoiCsrLDZPaP-12" value="z = x * y" style="rounded=0;whiteSpace=wrap;html=1;" vertex="1" parent="1">
          <mxGeometry x="353" y="420" width="120" height="60" as="geometry" />
        </mxCell>
        <mxCell id="aLoy-yfGPoiCsrLDZPaP-18" value="" style="edgeStyle=orthogonalEdgeStyle;rounded=0;orthogonalLoop=1;jettySize=auto;html=1;" edge="1" parent="1" source="aLoy-yfGPoiCsrLDZPaP-14" target="aLoy-yfGPoiCsrLDZPaP-17">
          <mxGeometry relative="1" as="geometry" />
        </mxCell>
        <mxCell id="aLoy-yfGPoiCsrLDZPaP-14" value="Вывод z" style="rounded=0;whiteSpace=wrap;html=1;" vertex="1" parent="1">
          <mxGeometry x="220" y="570" width="120" height="60" as="geometry" />
        </mxCell>
        <mxCell id="aLoy-yfGPoiCsrLDZPaP-17" value="Конец" style="rounded=0;whiteSpace=wrap;html=1;" vertex="1" parent="1">
          <mxGeometry x="220" y="710" width="120" height="60" as="geometry" />
        </mxCell>
      </root>
    </mxGraphModel>
  </diagram>
  <diagram id="atV4_LoDTahBce_uAyUn" name="5.Разветвляющийся алгоритм">
    <mxGraphModel dx="546" dy="1428" grid="1" gridSize="10" guides="1" tooltips="1" connect="1" arrows="1" fold="1" page="1" pageScale="1" pageWidth="827" pageHeight="1169" math="0" shadow="0">
      <root>
        <mxCell id="0" />
        <mxCell id="1" parent="0" />
        <mxCell id="_6p8mht4a1JczDKi_Cur-3" value="" style="edgeStyle=orthogonalEdgeStyle;rounded=0;orthogonalLoop=1;jettySize=auto;html=1;" edge="1" parent="1" source="_6p8mht4a1JczDKi_Cur-1" target="_6p8mht4a1JczDKi_Cur-2">
          <mxGeometry relative="1" as="geometry" />
        </mxCell>
        <mxCell id="_6p8mht4a1JczDKi_Cur-1" value="Начало" style="rounded=0;whiteSpace=wrap;html=1;" vertex="1" parent="1">
          <mxGeometry x="90" y="20" width="120" height="60" as="geometry" />
        </mxCell>
        <mxCell id="_6p8mht4a1JczDKi_Cur-5" value="" style="edgeStyle=orthogonalEdgeStyle;rounded=0;orthogonalLoop=1;jettySize=auto;html=1;" edge="1" parent="1" source="_6p8mht4a1JczDKi_Cur-2" target="_6p8mht4a1JczDKi_Cur-4">
          <mxGeometry relative="1" as="geometry" />
        </mxCell>
        <mxCell id="_6p8mht4a1JczDKi_Cur-2" value="Ввод числа" style="whiteSpace=wrap;html=1;rounded=0;" vertex="1" parent="1">
          <mxGeometry x="90" y="160" width="120" height="60" as="geometry" />
        </mxCell>
        <mxCell id="_6p8mht4a1JczDKi_Cur-7" value="" style="edgeStyle=orthogonalEdgeStyle;rounded=0;orthogonalLoop=1;jettySize=auto;html=1;" edge="1" parent="1" source="_6p8mht4a1JczDKi_Cur-4" target="_6p8mht4a1JczDKi_Cur-6">
          <mxGeometry relative="1" as="geometry">
            <Array as="points">
              <mxPoint x="250" y="330" />
            </Array>
          </mxGeometry>
        </mxCell>
        <mxCell id="_6p8mht4a1JczDKi_Cur-9" value="" style="edgeStyle=orthogonalEdgeStyle;rounded=0;orthogonalLoop=1;jettySize=auto;html=1;" edge="1" parent="1" source="_6p8mht4a1JczDKi_Cur-4" target="_6p8mht4a1JczDKi_Cur-8">
          <mxGeometry relative="1" as="geometry">
            <Array as="points">
              <mxPoint x="70" y="330" />
            </Array>
          </mxGeometry>
        </mxCell>
        <mxCell id="_6p8mht4a1JczDKi_Cur-4" value="Число&amp;nbsp; &amp;gt;=0?" style="rhombus;whiteSpace=wrap;html=1;rounded=0;" vertex="1" parent="1">
          <mxGeometry x="110" y="290" width="80" height="80" as="geometry" />
        </mxCell>
        <mxCell id="_6p8mht4a1JczDKi_Cur-13" value="" style="edgeStyle=orthogonalEdgeStyle;rounded=0;orthogonalLoop=1;jettySize=auto;html=1;" edge="1" parent="1" source="_6p8mht4a1JczDKi_Cur-6" target="_6p8mht4a1JczDKi_Cur-12">
          <mxGeometry relative="1" as="geometry" />
        </mxCell>
        <mxCell id="_6p8mht4a1JczDKi_Cur-6" value="Нет" style="text;html=1;align=center;verticalAlign=middle;whiteSpace=wrap;rounded=0;" vertex="1" parent="1">
          <mxGeometry x="220" y="360" width="60" height="30" as="geometry" />
        </mxCell>
        <mxCell id="_6p8mht4a1JczDKi_Cur-11" value="" style="edgeStyle=orthogonalEdgeStyle;rounded=0;orthogonalLoop=1;jettySize=auto;html=1;" edge="1" parent="1" source="_6p8mht4a1JczDKi_Cur-8" target="_6p8mht4a1JczDKi_Cur-10">
          <mxGeometry relative="1" as="geometry" />
        </mxCell>
        <mxCell id="_6p8mht4a1JczDKi_Cur-8" value="Да" style="text;html=1;align=center;verticalAlign=middle;whiteSpace=wrap;rounded=0;" vertex="1" parent="1">
          <mxGeometry x="40" y="360" width="60" height="30" as="geometry" />
        </mxCell>
        <mxCell id="_6p8mht4a1JczDKi_Cur-15" value="" style="edgeStyle=orthogonalEdgeStyle;rounded=0;orthogonalLoop=1;jettySize=auto;html=1;" edge="1" parent="1" source="_6p8mht4a1JczDKi_Cur-10" target="_6p8mht4a1JczDKi_Cur-14">
          <mxGeometry relative="1" as="geometry" />
        </mxCell>
        <mxCell id="_6p8mht4a1JczDKi_Cur-10" value="число = число - 10" style="whiteSpace=wrap;html=1;" vertex="1" parent="1">
          <mxGeometry x="10" y="455" width="120" height="60" as="geometry" />
        </mxCell>
        <mxCell id="_6p8mht4a1JczDKi_Cur-16" value="" style="edgeStyle=orthogonalEdgeStyle;rounded=0;orthogonalLoop=1;jettySize=auto;html=1;" edge="1" parent="1" source="_6p8mht4a1JczDKi_Cur-12" target="_6p8mht4a1JczDKi_Cur-14">
          <mxGeometry relative="1" as="geometry" />
        </mxCell>
        <mxCell id="_6p8mht4a1JczDKi_Cur-12" value="число = число + 10" style="whiteSpace=wrap;html=1;" vertex="1" parent="1">
          <mxGeometry x="190" y="455" width="120" height="60" as="geometry" />
        </mxCell>
        <mxCell id="_6p8mht4a1JczDKi_Cur-18" value="" style="edgeStyle=orthogonalEdgeStyle;rounded=0;orthogonalLoop=1;jettySize=auto;html=1;" edge="1" parent="1" source="_6p8mht4a1JczDKi_Cur-14" target="_6p8mht4a1JczDKi_Cur-17">
          <mxGeometry relative="1" as="geometry" />
        </mxCell>
        <mxCell id="_6p8mht4a1JczDKi_Cur-14" value="Вывод результата" style="rounded=0;whiteSpace=wrap;html=1;" vertex="1" parent="1">
          <mxGeometry x="100" y="560" width="120" height="60" as="geometry" />
        </mxCell>
        <mxCell id="_6p8mht4a1JczDKi_Cur-17" value="Конец" style="whiteSpace=wrap;html=1;rounded=0;" vertex="1" parent="1">
          <mxGeometry x="100" y="700" width="120" height="60" as="geometry" />
        </mxCell>
      </root>
    </mxGraphModel>
  </diagram>
  <diagram id="5qpnUl_-ZDarPUkeGZLC" name="6.Анализ фрагмента алгоритма">
    <mxGraphModel dx="455" dy="1190" grid="1" gridSize="10" guides="1" tooltips="1" connect="1" arrows="1" fold="1" page="1" pageScale="1" pageWidth="827" pageHeight="1169" math="0" shadow="0">
      <root>
        <mxCell id="0" />
        <mxCell id="1" parent="0" />
        <mxCell id="Iat98MEatB-GCAROsLmP-3" value="" style="edgeStyle=orthogonalEdgeStyle;rounded=0;orthogonalLoop=1;jettySize=auto;html=1;" edge="1" parent="1" source="Iat98MEatB-GCAROsLmP-1" target="Iat98MEatB-GCAROsLmP-2">
          <mxGeometry relative="1" as="geometry" />
        </mxCell>
        <mxCell id="Iat98MEatB-GCAROsLmP-1" value="Начало" style="rounded=0;whiteSpace=wrap;html=1;" vertex="1" parent="1">
          <mxGeometry x="180" y="10" width="120" height="60" as="geometry" />
        </mxCell>
        <mxCell id="Iat98MEatB-GCAROsLmP-5" value="" style="edgeStyle=orthogonalEdgeStyle;rounded=0;orthogonalLoop=1;jettySize=auto;html=1;" edge="1" parent="1" source="Iat98MEatB-GCAROsLmP-2" target="Iat98MEatB-GCAROsLmP-4">
          <mxGeometry relative="1" as="geometry" />
        </mxCell>
        <mxCell id="Iat98MEatB-GCAROsLmP-2" value="Ввод a, b" style="whiteSpace=wrap;html=1;rounded=0;" vertex="1" parent="1">
          <mxGeometry x="180" y="150" width="120" height="60" as="geometry" />
        </mxCell>
        <mxCell id="Iat98MEatB-GCAROsLmP-7" value="" style="edgeStyle=orthogonalEdgeStyle;rounded=0;orthogonalLoop=1;jettySize=auto;html=1;" edge="1" parent="1" source="Iat98MEatB-GCAROsLmP-4" target="Iat98MEatB-GCAROsLmP-6">
          <mxGeometry relative="1" as="geometry" />
        </mxCell>
        <mxCell id="Iat98MEatB-GCAROsLmP-9" value="" style="edgeStyle=orthogonalEdgeStyle;rounded=0;orthogonalLoop=1;jettySize=auto;html=1;" edge="1" parent="1" source="Iat98MEatB-GCAROsLmP-4" target="Iat98MEatB-GCAROsLmP-8">
          <mxGeometry relative="1" as="geometry" />
        </mxCell>
        <mxCell id="Iat98MEatB-GCAROsLmP-4" value="a = b?" style="rhombus;whiteSpace=wrap;html=1;rounded=0;" vertex="1" parent="1">
          <mxGeometry x="200" y="280" width="80" height="80" as="geometry" />
        </mxCell>
        <mxCell id="Iat98MEatB-GCAROsLmP-13" value="" style="edgeStyle=orthogonalEdgeStyle;rounded=0;orthogonalLoop=1;jettySize=auto;html=1;" edge="1" parent="1" source="Iat98MEatB-GCAROsLmP-6" target="Iat98MEatB-GCAROsLmP-12">
          <mxGeometry relative="1" as="geometry" />
        </mxCell>
        <mxCell id="Iat98MEatB-GCAROsLmP-6" value="Да" style="text;html=1;align=center;verticalAlign=middle;whiteSpace=wrap;rounded=0;" vertex="1" parent="1">
          <mxGeometry x="90" y="350" width="60" height="40" as="geometry" />
        </mxCell>
        <mxCell id="Iat98MEatB-GCAROsLmP-11" value="" style="edgeStyle=orthogonalEdgeStyle;rounded=0;orthogonalLoop=1;jettySize=auto;html=1;" edge="1" parent="1" source="Iat98MEatB-GCAROsLmP-8" target="Iat98MEatB-GCAROsLmP-10">
          <mxGeometry relative="1" as="geometry" />
        </mxCell>
        <mxCell id="Iat98MEatB-GCAROsLmP-8" value="Нет" style="text;html=1;align=center;verticalAlign=middle;whiteSpace=wrap;rounded=0;" vertex="1" parent="1">
          <mxGeometry x="310" y="350" width="60" height="30" as="geometry" />
        </mxCell>
        <mxCell id="Iat98MEatB-GCAROsLmP-15" value="" style="edgeStyle=orthogonalEdgeStyle;rounded=0;orthogonalLoop=1;jettySize=auto;html=1;" edge="1" parent="1" source="Iat98MEatB-GCAROsLmP-10" target="Iat98MEatB-GCAROsLmP-14">
          <mxGeometry relative="1" as="geometry" />
        </mxCell>
        <mxCell id="Iat98MEatB-GCAROsLmP-10" value="t = 2" style="whiteSpace=wrap;html=1;" vertex="1" parent="1">
          <mxGeometry x="280" y="460" width="120" height="60" as="geometry" />
        </mxCell>
        <mxCell id="Iat98MEatB-GCAROsLmP-16" value="" style="edgeStyle=orthogonalEdgeStyle;rounded=0;orthogonalLoop=1;jettySize=auto;html=1;" edge="1" parent="1" source="Iat98MEatB-GCAROsLmP-12" target="Iat98MEatB-GCAROsLmP-14">
          <mxGeometry relative="1" as="geometry" />
        </mxCell>
        <mxCell id="Iat98MEatB-GCAROsLmP-12" value="t = 1" style="whiteSpace=wrap;html=1;" vertex="1" parent="1">
          <mxGeometry x="60" y="460" width="120" height="60" as="geometry" />
        </mxCell>
        <mxCell id="Iat98MEatB-GCAROsLmP-18" value="" style="edgeStyle=orthogonalEdgeStyle;rounded=0;orthogonalLoop=1;jettySize=auto;html=1;" edge="1" parent="1" source="Iat98MEatB-GCAROsLmP-14" target="Iat98MEatB-GCAROsLmP-17">
          <mxGeometry relative="1" as="geometry" />
        </mxCell>
        <mxCell id="Iat98MEatB-GCAROsLmP-14" value="Вывод t" style="rounded=0;whiteSpace=wrap;html=1;" vertex="1" parent="1">
          <mxGeometry x="170" y="585" width="120" height="60" as="geometry" />
        </mxCell>
        <mxCell id="Iat98MEatB-GCAROsLmP-17" value="Конец" style="whiteSpace=wrap;html=1;rounded=0;" vertex="1" parent="1">
          <mxGeometry x="170" y="725" width="120" height="60" as="geometry" />
        </mxCell>
      </root>
    </mxGraphModel>
  </diagram>
  <diagram id="uJwbk0voMDuvY4tQI-Wj" name="7. Вычисление площади круга">
    <mxGraphModel dx="683" dy="1785" grid="1" gridSize="10" guides="1" tooltips="1" connect="1" arrows="1" fold="1" page="1" pageScale="1" pageWidth="827" pageHeight="1169" math="0" shadow="0">
      <root>
        <mxCell id="0" />
        <mxCell id="1" parent="0" />
        <mxCell id="fAtnkxFAtVoZXwrUGkv_-3" value="" style="edgeStyle=orthogonalEdgeStyle;rounded=0;orthogonalLoop=1;jettySize=auto;html=1;" edge="1" parent="1" source="fAtnkxFAtVoZXwrUGkv_-1" target="fAtnkxFAtVoZXwrUGkv_-2">
          <mxGeometry relative="1" as="geometry" />
        </mxCell>
        <mxCell id="fAtnkxFAtVoZXwrUGkv_-1" value="Начало" style="rounded=0;whiteSpace=wrap;html=1;" vertex="1" parent="1">
          <mxGeometry x="230" y="30" width="120" height="60" as="geometry" />
        </mxCell>
        <mxCell id="fAtnkxFAtVoZXwrUGkv_-5" value="" style="edgeStyle=orthogonalEdgeStyle;rounded=0;orthogonalLoop=1;jettySize=auto;html=1;" edge="1" parent="1" source="fAtnkxFAtVoZXwrUGkv_-2" target="fAtnkxFAtVoZXwrUGkv_-4">
          <mxGeometry relative="1" as="geometry" />
        </mxCell>
        <mxCell id="fAtnkxFAtVoZXwrUGkv_-2" value="Ввод номера элемента" style="whiteSpace=wrap;html=1;rounded=0;" vertex="1" parent="1">
          <mxGeometry x="200" y="170" width="180" height="40" as="geometry" />
        </mxCell>
        <mxCell id="fAtnkxFAtVoZXwrUGkv_-7" value="" style="edgeStyle=orthogonalEdgeStyle;rounded=0;orthogonalLoop=1;jettySize=auto;html=1;entryX=0.5;entryY=0;entryDx=0;entryDy=0;" edge="1" parent="1" source="fAtnkxFAtVoZXwrUGkv_-4" target="fAtnkxFAtVoZXwrUGkv_-6">
          <mxGeometry relative="1" as="geometry">
            <Array as="points">
              <mxPoint x="210" y="310" />
            </Array>
          </mxGeometry>
        </mxCell>
        <mxCell id="fAtnkxFAtVoZXwrUGkv_-9" value="" style="edgeStyle=orthogonalEdgeStyle;rounded=0;orthogonalLoop=1;jettySize=auto;html=1;entryX=0.5;entryY=0;entryDx=0;entryDy=0;" edge="1" parent="1" source="fAtnkxFAtVoZXwrUGkv_-4" target="fAtnkxFAtVoZXwrUGkv_-8">
          <mxGeometry relative="1" as="geometry">
            <Array as="points">
              <mxPoint x="350" y="310" />
              <mxPoint x="350" y="300" />
              <mxPoint x="390" y="300" />
            </Array>
          </mxGeometry>
        </mxCell>
        <mxCell id="fAtnkxFAtVoZXwrUGkv_-4" value="номер = 1?" style="rhombus;whiteSpace=wrap;html=1;rounded=0;" vertex="1" parent="1">
          <mxGeometry x="250" y="270" width="80" height="80" as="geometry" />
        </mxCell>
        <mxCell id="fAtnkxFAtVoZXwrUGkv_-10" style="edgeStyle=orthogonalEdgeStyle;rounded=0;orthogonalLoop=1;jettySize=auto;html=1;exitX=0.5;exitY=0;exitDx=0;exitDy=0;entryX=0.5;entryY=0;entryDx=0;entryDy=0;" edge="1" parent="1" source="fAtnkxFAtVoZXwrUGkv_-6" target="fAtnkxFAtVoZXwrUGkv_-6">
          <mxGeometry relative="1" as="geometry">
            <mxPoint x="180" y="250" as="targetPoint" />
          </mxGeometry>
        </mxCell>
        <mxCell id="fAtnkxFAtVoZXwrUGkv_-14" value="" style="edgeStyle=orthogonalEdgeStyle;rounded=0;orthogonalLoop=1;jettySize=auto;html=1;" edge="1" parent="1" source="fAtnkxFAtVoZXwrUGkv_-6" target="fAtnkxFAtVoZXwrUGkv_-13">
          <mxGeometry relative="1" as="geometry" />
        </mxCell>
        <mxCell id="fAtnkxFAtVoZXwrUGkv_-6" value="Да" style="text;html=1;align=center;verticalAlign=middle;whiteSpace=wrap;rounded=0;" vertex="1" parent="1">
          <mxGeometry x="180" y="320" width="60" height="30" as="geometry" />
        </mxCell>
        <mxCell id="fAtnkxFAtVoZXwrUGkv_-12" value="" style="edgeStyle=orthogonalEdgeStyle;rounded=0;orthogonalLoop=1;jettySize=auto;html=1;" edge="1" parent="1" source="fAtnkxFAtVoZXwrUGkv_-8" target="fAtnkxFAtVoZXwrUGkv_-11">
          <mxGeometry relative="1" as="geometry" />
        </mxCell>
        <mxCell id="fAtnkxFAtVoZXwrUGkv_-8" value="Нет" style="text;html=1;align=center;verticalAlign=middle;whiteSpace=wrap;rounded=0;" vertex="1" parent="1">
          <mxGeometry x="360" y="320" width="60" height="30" as="geometry" />
        </mxCell>
        <mxCell id="fAtnkxFAtVoZXwrUGkv_-17" value="" style="edgeStyle=orthogonalEdgeStyle;rounded=0;orthogonalLoop=1;jettySize=auto;html=1;" edge="1" parent="1" source="fAtnkxFAtVoZXwrUGkv_-11" target="fAtnkxFAtVoZXwrUGkv_-15">
          <mxGeometry relative="1" as="geometry">
            <Array as="points">
              <mxPoint x="460" y="440" />
            </Array>
          </mxGeometry>
        </mxCell>
        <mxCell id="fAtnkxFAtVoZXwrUGkv_-18" value="" style="edgeStyle=orthogonalEdgeStyle;rounded=0;orthogonalLoop=1;jettySize=auto;html=1;" edge="1" parent="1" source="fAtnkxFAtVoZXwrUGkv_-11" target="fAtnkxFAtVoZXwrUGkv_-16">
          <mxGeometry relative="1" as="geometry">
            <Array as="points">
              <mxPoint x="310" y="440" />
            </Array>
          </mxGeometry>
        </mxCell>
        <mxCell id="fAtnkxFAtVoZXwrUGkv_-11" value="номер = 2?" style="rhombus;whiteSpace=wrap;html=1;" vertex="1" parent="1">
          <mxGeometry x="350" y="420" width="80" height="80" as="geometry" />
        </mxCell>
        <mxCell id="fAtnkxFAtVoZXwrUGkv_-26" value="" style="edgeStyle=orthogonalEdgeStyle;rounded=0;orthogonalLoop=1;jettySize=auto;html=1;" edge="1" parent="1" source="fAtnkxFAtVoZXwrUGkv_-13" target="fAtnkxFAtVoZXwrUGkv_-23">
          <mxGeometry relative="1" as="geometry">
            <Array as="points">
              <mxPoint x="210" y="660" />
              <mxPoint x="390" y="660" />
            </Array>
          </mxGeometry>
        </mxCell>
        <mxCell id="fAtnkxFAtVoZXwrUGkv_-13" value="Ввод радиуса" style="whiteSpace=wrap;html=1;" vertex="1" parent="1">
          <mxGeometry x="150" y="415" width="120" height="60" as="geometry" />
        </mxCell>
        <mxCell id="fAtnkxFAtVoZXwrUGkv_-20" value="" style="edgeStyle=orthogonalEdgeStyle;rounded=0;orthogonalLoop=1;jettySize=auto;html=1;" edge="1" parent="1" source="fAtnkxFAtVoZXwrUGkv_-15" target="fAtnkxFAtVoZXwrUGkv_-19">
          <mxGeometry relative="1" as="geometry" />
        </mxCell>
        <mxCell id="fAtnkxFAtVoZXwrUGkv_-15" value="Нет" style="text;html=1;align=center;verticalAlign=middle;whiteSpace=wrap;rounded=0;" vertex="1" parent="1">
          <mxGeometry x="430" y="480" width="60" height="30" as="geometry" />
        </mxCell>
        <mxCell id="fAtnkxFAtVoZXwrUGkv_-22" value="" style="edgeStyle=orthogonalEdgeStyle;rounded=0;orthogonalLoop=1;jettySize=auto;html=1;" edge="1" parent="1" source="fAtnkxFAtVoZXwrUGkv_-16" target="fAtnkxFAtVoZXwrUGkv_-21">
          <mxGeometry relative="1" as="geometry" />
        </mxCell>
        <mxCell id="fAtnkxFAtVoZXwrUGkv_-16" value="Да" style="text;html=1;align=center;verticalAlign=middle;whiteSpace=wrap;rounded=0;" vertex="1" parent="1">
          <mxGeometry x="280" y="470" width="60" height="40" as="geometry" />
        </mxCell>
        <mxCell id="fAtnkxFAtVoZXwrUGkv_-24" value="" style="edgeStyle=orthogonalEdgeStyle;rounded=0;orthogonalLoop=1;jettySize=auto;html=1;" edge="1" parent="1" source="fAtnkxFAtVoZXwrUGkv_-19" target="fAtnkxFAtVoZXwrUGkv_-23">
          <mxGeometry relative="1" as="geometry" />
        </mxCell>
        <mxCell id="fAtnkxFAtVoZXwrUGkv_-19" value="Ввод длины окружности&lt;div&gt;радиус = длина/(2*π)&lt;/div&gt;" style="whiteSpace=wrap;html=1;" vertex="1" parent="1">
          <mxGeometry x="440" y="560" width="120" height="60" as="geometry" />
        </mxCell>
        <mxCell id="fAtnkxFAtVoZXwrUGkv_-25" value="" style="edgeStyle=orthogonalEdgeStyle;rounded=0;orthogonalLoop=1;jettySize=auto;html=1;" edge="1" parent="1" source="fAtnkxFAtVoZXwrUGkv_-21" target="fAtnkxFAtVoZXwrUGkv_-23">
          <mxGeometry relative="1" as="geometry" />
        </mxCell>
        <mxCell id="fAtnkxFAtVoZXwrUGkv_-21" value="Ввод диаметра&lt;div&gt;радиус = диаметр/2&lt;/div&gt;" style="whiteSpace=wrap;html=1;" vertex="1" parent="1">
          <mxGeometry x="230" y="560" width="120" height="60" as="geometry" />
        </mxCell>
        <mxCell id="fAtnkxFAtVoZXwrUGkv_-28" value="" style="edgeStyle=orthogonalEdgeStyle;rounded=0;orthogonalLoop=1;jettySize=auto;html=1;" edge="1" parent="1" source="fAtnkxFAtVoZXwrUGkv_-23" target="fAtnkxFAtVoZXwrUGkv_-27">
          <mxGeometry relative="1" as="geometry" />
        </mxCell>
        <mxCell id="fAtnkxFAtVoZXwrUGkv_-23" value="площадь = π * радиус * радиус" style="rounded=0;whiteSpace=wrap;html=1;" vertex="1" parent="1">
          <mxGeometry x="330" y="790" width="120" height="50" as="geometry" />
        </mxCell>
        <mxCell id="fAtnkxFAtVoZXwrUGkv_-30" value="" style="edgeStyle=orthogonalEdgeStyle;rounded=0;orthogonalLoop=1;jettySize=auto;html=1;" edge="1" parent="1" source="fAtnkxFAtVoZXwrUGkv_-27" target="fAtnkxFAtVoZXwrUGkv_-29">
          <mxGeometry relative="1" as="geometry" />
        </mxCell>
        <mxCell id="fAtnkxFAtVoZXwrUGkv_-27" value="Вывод площади" style="whiteSpace=wrap;html=1;rounded=0;" vertex="1" parent="1">
          <mxGeometry x="330" y="915" width="120" height="60" as="geometry" />
        </mxCell>
        <mxCell id="fAtnkxFAtVoZXwrUGkv_-29" value="Конец" style="whiteSpace=wrap;html=1;rounded=0;" vertex="1" parent="1">
          <mxGeometry x="330" y="1055" width="120" height="60" as="geometry" />
        </mxCell>
      </root>
    </mxGraphModel>
  </diagram>
</mxfile>
